<?xml version="1.0" standalone="no"?>
<!DOCTYPE svg PUBLIC "-//W3C//DTD SVG 20010904//EN"
 "http://www.w3.org/TR/2001/REC-SVG-20010904/DTD/svg10.dtd">
<svg version="1.0" xmlns="http://www.w3.org/2000/svg"
 width="400.000000pt" height="400.000000pt" viewBox="0 0 400.000000 400.000000"
 preserveAspectRatio="xMidYMid meet">

<g transform="translate(0.000000,400.000000) scale(0.100000,-0.100000)"
fill="#000000" stroke="none">
<path d="M2734 2620 c-27 -11 -82 -75 -90 -105 -6 -26 15 -63 56 -100 16 -14
24 -16 27 -7 8 21 21 13 32 -18 5 -16 16 -30 24 -30 8 0 20 -7 27 -16 8 -8 29
-22 48 -29 18 -8 36 -23 39 -34 6 -22 38 -37 101 -46 39 -6 47 -4 73 21 31 30
50 82 44 126 -5 45 -37 121 -59 143 -60 60 -70 63 -176 58 -81 -4 -100 -2
-100 9 0 8 5 19 12 26 9 9 7 12 -12 11 -14 0 -34 -4 -46 -9z m99 -136 c9 -10
-4 -34 -19 -34 -8 0 -14 9 -14 20 0 19 19 27 33 14z"/>
<path d="M1100 2450 c-52 -9 -111 -24 -131 -32 -70 -30 -112 -90 -134 -190 -6
-26 28 -62 93 -96 51 -27 64 -30 92 -22 18 5 46 25 62 45 18 21 45 39 71 47
23 6 46 18 50 25 4 7 15 13 23 13 8 0 19 11 24 25 5 14 14 25 20 25 5 0 10 13
10 29 0 17 5 33 10 36 15 9 12 45 -5 51 -8 3 -17 14 -20 24 -4 14 -63 47 -69
39 -1 -1 -44 -10 -96 -19z"/>
<path d="M2240 1926 c-3 -2 -28 -7 -57 -10 -28 -4 -69 -12 -90 -20 -22 -7 -69
-12 -110 -10 -40 1 -73 -2 -73 -7 0 -5 -10 -9 -23 -9 -12 0 -56 -17 -97 -39
-64 -32 -79 -46 -102 -87 -25 -44 -28 -59 -28 -145 0 -79 3 -98 16 -103 8 -3
13 -10 10 -15 -3 -5 1 -11 9 -15 8 -3 15 -15 15 -27 0 -11 6 -35 14 -52 8 -18
17 -54 21 -81 5 -36 9 -46 17 -35 7 11 8 9 4 -6 -3 -11 -10 -59 -15 -106 -6
-53 -18 -100 -30 -123 -12 -20 -21 -43 -21 -51 0 -23 -22 -65 -31 -59 -5 3 -9
-6 -9 -20 0 -13 -7 -31 -15 -40 -8 -8 -15 -22 -15 -31 0 -8 -7 -18 -15 -21 -8
-4 -15 -14 -15 -24 0 -10 -8 -21 -18 -25 -11 -3 -24 -16 -30 -29 -6 -14 -23
-31 -39 -38 -16 -8 -27 -21 -27 -31 1 -12 -6 -17 -22 -17 -22 0 -23 -2 -13
-21 7 -14 14 -18 21 -11 12 12 66 -16 73 -39 9 -26 95 -20 118 8 13 17 26 21
57 18 25 -2 62 6 98 21 62 25 78 17 43 -20 -23 -24 -19 -61 5 -52 7 3 16 1 19
-4 9 -15 19 -12 42 10 12 10 34 22 50 25 15 4 45 13 66 21 39 15 46 8 25 -25
-9 -15 -9 -23 2 -35 12 -15 14 -15 24 5 14 27 105 67 115 50 4 -6 18 -10 32
-9 16 2 24 -2 24 -12 0 -17 30 -50 45 -50 5 0 20 15 31 33 20 29 113 96 199
143 19 10 40 24 46 30 7 6 26 17 43 24 17 7 31 19 31 27 0 12 7 14 29 10 26
-5 28 -4 24 21 -4 23 -3 24 7 10 14 -22 39 -23 46 -3 4 8 12 15 20 15 10 0 8
-6 -6 -20 -11 -11 -25 -20 -32 -20 -9 0 -9 -3 0 -12 17 -17 15 -30 -5 -27 -40
4 -64 -1 -57 -12 3 -6 15 -9 25 -6 10 3 23 -1 30 -9 8 -10 8 -14 0 -14 -6 0
-11 -4 -11 -10 0 -14 28 -12 33 3 3 9 7 9 20 -2 15 -11 17 -11 17 2 0 8 -6 17
-12 20 -7 2 -9 8 -5 13 5 5 13 1 18 -9 6 -10 21 -17 37 -16 27 0 27 0 4 10
-24 9 -22 29 4 29 8 0 14 5 14 10 0 6 5 10 10 10 14 0 12 -27 -2 -33 -10 -4
-10 -6 -1 -6 7 -1 19 12 28 28 14 28 14 30 -8 34 -12 2 -2 5 23 5 33 1 41 -1
30 -8 -13 -9 -13 -11 0 -19 18 -12 30 3 23 30 -3 10 -17 20 -32 22 l-26 4 28
2 c24 1 41 21 17 21 -5 0 -10 5 -10 10 0 6 6 10 14 10 29 0 134 175 151 250 9
40 8 194 -1 225 -9 30 -35 55 -57 55 -20 0 -74 -34 -94 -60 -7 -8 -13 -23 -13
-33 0 -10 -7 -20 -15 -23 -8 -4 -15 -12 -15 -19 0 -19 -82 -113 -122 -140 -18
-13 -63 -30 -100 -38 l-67 -15 -18 37 c-10 20 -24 35 -31 33 -6 -1 -12 5 -12
14 0 8 -5 12 -10 9 -6 -3 -13 1 -16 10 -4 9 -13 14 -20 11 -8 -3 -21 -3 -30 1
-14 5 -13 8 6 23 l22 16 -26 17 c-25 17 -25 17 -9 54 9 21 17 66 19 99 2 64
19 128 41 154 30 38 -4 198 -54 248 -8 8 -21 25 -29 38 -21 31 -197 98 -214
80z"/>
<path d="M3005 764 c-13 -24 -15 -38 -8 -42 6 -4 14 -24 18 -45 8 -44 17 -46
51 -12 22 22 25 31 19 68 -8 47 -11 52 -40 61 -16 5 -25 -2 -40 -30z"/>
<path d="M2711 694 c0 -11 3 -14 6 -6 3 7 2 16 -1 19 -3 4 -6 -2 -5 -13z"/>
</g>
</svg>
