<?xml version="1.0" standalone="no"?><!DOCTYPE svg PUBLIC "-//W3C//DTD SVG 1.1//EN" "http://www.w3.org/Graphics/SVG/1.1/DTD/svg11.dtd"><svg class="icon" width="200px" height="200.00px" viewBox="0 0 1024 1024" version="1.1" xmlns="http://www.w3.org/2000/svg"><path d="M699.904 353.28c-6.912 2.816-20.992 19.2-23.04 26.88-1.536 6.656 3.84 16.128 14.336 25.6 4.096 3.584 6.144 4.096 6.912 1.792 2.048-5.376 5.376-3.328 8.192 4.608 1.28 4.096 4.096 7.68 6.144 7.68 2.048 0 5.12 1.792 6.912 4.096 2.048 2.048 7.424 5.632 12.288 7.424 4.608 2.048 9.216 5.888 9.984 8.704 1.536 5.632 9.728 9.472 25.856 11.776 9.984 1.536 12.032 1.024 18.688-5.376 7.936-7.68 12.8-20.992 11.264-32.256-1.28-11.52-9.472-30.976-15.104-36.608-15.36-15.36-17.92-16.128-45.056-14.848-20.736 1.024-25.6 0.512-25.6-2.304 0-2.048 1.28-4.864 3.072-6.656 2.304-2.304 1.792-3.072-3.072-2.816-3.584 0-8.704 1.024-11.776 2.304z m25.344 34.816c2.304 2.56-1.024 8.704-4.864 8.704-2.048 0-3.584-2.304-3.584-5.12 0-4.864 4.864-6.912 8.448-3.584zM281.6 396.8c-13.312 2.304-28.416 6.144-33.536 8.192-17.92 7.68-28.672 23.04-34.304 48.64-1.536 6.656 7.168 15.872 23.808 24.576 13.056 6.912 16.384 7.68 23.552 5.632 4.608-1.28 11.776-6.4 15.872-11.52 4.608-5.376 11.52-9.984 18.176-12.032 5.888-1.536 11.776-4.608 12.8-6.4 1.024-1.792 3.84-3.328 5.888-3.328 2.048 0 4.864-2.816 6.144-6.4s3.584-6.4 5.12-6.4c1.28 0 2.56-3.328 2.56-7.424 0-4.352 1.28-8.448 2.56-9.216 3.84-2.304 3.072-11.52-1.28-13.056-2.048-0.768-4.352-3.584-5.12-6.144-1.024-3.584-16.128-12.032-17.664-9.984-0.256 0.256-11.264 2.56-24.576 4.864zM573.44 530.944c-0.768 0.512-7.168 1.792-14.592 2.56-7.168 1.024-17.664 3.072-23.04 5.12-5.632 1.792-17.664 3.072-28.16 2.56-10.24-0.256-18.688 0.512-18.688 1.792 0 1.28-2.56 2.304-5.888 2.304-3.072 0-14.336 4.352-24.832 9.984-16.384 8.192-20.224 11.776-26.112 22.272-6.4 11.264-7.168 15.104-7.168 37.12 0 20.224 0.768 25.088 4.096 26.368 2.048 0.768 3.328 2.56 2.56 3.84-0.768 1.28 0.256 2.816 2.304 3.84 2.048 0.768 3.84 3.84 3.84 6.912 0 2.816 1.536 8.96 3.584 13.312 2.048 4.608 4.352 13.824 5.376 20.736 1.28 9.216 2.304 11.776 4.352 8.96 1.792-2.816 2.048-2.304 1.024 1.536-0.768 2.816-2.56 15.104-3.84 27.136-1.536 13.568-4.608 25.6-7.68 31.488-3.072 5.12-5.376 11.008-5.376 13.056 0 5.888-5.632 16.64-7.936 15.104-1.28-0.768-2.304 1.536-2.304 5.12 0 3.328-1.792 7.936-3.84 10.24-2.048 2.048-3.84 5.632-3.84 7.936 0 2.048-1.792 4.608-3.84 5.376-2.048 1.024-3.84 3.584-3.84 6.144s-2.048 5.376-4.608 6.4c-2.816 0.768-6.144 4.096-7.68 7.424-1.536 3.584-5.888 7.936-9.984 9.728-4.096 2.048-6.912 5.376-6.912 7.936 0.256 3.072-1.536 4.352-5.632 4.352-5.632 0-5.888 0.512-3.328 5.376 1.792 3.584 3.584 4.608 5.376 2.816 3.072-3.072 16.896 4.096 18.688 9.984 2.304 6.656 24.32 5.12 30.208-2.048 3.328-4.352 6.656-5.376 14.592-4.608 6.4 0.512 15.872-1.536 25.088-5.376 15.872-6.4 19.968-4.352 11.008 5.12-5.888 6.144-4.864 15.616 1.28 13.312 1.792-0.768 4.096-0.256 4.864 1.024 2.304 3.84 4.864 3.072 10.752-2.56 3.072-2.56 8.704-5.632 12.8-6.4 3.84-1.024 11.52-3.328 16.896-5.376 9.984-3.84 11.776-2.048 6.4 6.4-2.304 3.84-2.304 5.888 0.512 8.96 3.072 3.84 3.584 3.84 6.144-1.28 3.584-6.912 26.88-17.152 29.44-12.8 1.024 1.536 4.608 2.56 8.192 2.304 4.096-0.512 6.144 0.512 6.144 3.072 0 4.352 7.68 12.8 11.52 12.8 1.28 0 5.12-3.84 7.936-8.448 5.12-7.424 28.928-24.576 50.944-36.608 4.864-2.56 10.24-6.144 11.776-7.68 1.792-1.536 6.656-4.352 11.008-6.144 4.352-1.792 7.936-4.864 7.936-6.912 0-3.072 1.792-3.584 7.424-2.56 6.656 1.28 7.168 1.024 6.144-5.376-1.024-5.888-0.768-6.144 1.792-2.56 3.584 5.632 9.984 5.888 11.776 0.768 1.024-2.048 3.072-3.84 5.12-3.84 2.56 0 2.048 1.536-1.536 5.12-2.816 2.816-6.4 5.12-8.192 5.12-2.304 0-2.304 0.768 0 3.072 4.352 4.352 3.84 7.68-1.28 6.912-10.24-1.024-16.384 0.256-14.592 3.072 0.768 1.536 3.84 2.304 6.4 1.536 2.56-0.768 5.888 0.256 7.68 2.304 2.048 2.56 2.048 3.584 0 3.584-1.536 0-2.816 1.024-2.816 2.56 0 3.584 7.168 3.072 8.448-0.768 0.768-2.304 1.792-2.304 5.12 0.512 3.84 2.816 4.352 2.816 4.352-0.512 0-2.048-1.536-4.352-3.072-5.12-1.792-0.512-2.304-2.048-1.28-3.328 1.28-1.28 3.328-0.256 4.608 2.304 1.536 2.56 5.376 4.352 9.472 4.096 6.912 0 6.912 0 1.024-2.56-6.144-2.304-5.632-7.424 1.024-7.424 2.048 0 3.584-1.28 3.584-2.56 0-1.536 1.28-2.56 2.56-2.56 3.584 0 3.072 6.912-0.512 8.448-2.56 1.024-2.56 1.536-0.256 1.536 1.792 0.256 4.864-3.072 7.168-7.168 3.584-7.168 3.584-7.68-2.048-8.704-3.072-0.512-0.512-1.28 5.888-1.28 8.448-0.256 10.496 0.256 7.68 2.048-3.328 2.304-3.328 2.816 0 4.864 4.608 3.072 7.68-0.768 5.888-7.68-0.768-2.56-4.352-5.12-8.192-5.632l-6.656-1.024 7.168-0.512c6.144-0.256 10.496-5.376 4.352-5.376-1.28 0-2.56-1.28-2.56-2.56 0-1.536 1.536-2.56 3.584-2.56 7.424 0 34.304-44.8 38.656-64 2.304-10.24 2.048-49.664-0.256-57.6-2.304-7.68-8.96-14.08-14.592-14.08-5.12 0-18.944 8.704-24.064 15.36-1.792 2.048-3.328 5.888-3.328 8.448s-1.792 5.12-3.84 5.888c-2.048 1.024-3.84 3.072-3.84 4.864 0 4.864-20.992 28.928-31.232 35.84-4.608 3.328-16.128 7.68-25.6 9.728l-17.152 3.84-4.608-9.472c-2.56-5.12-6.144-8.96-7.936-8.448-1.536 0.256-3.072-1.28-3.072-3.584 0-2.048-1.28-3.072-2.56-2.304-1.536 0.768-3.328-0.256-4.096-2.56-1.024-2.304-3.328-3.584-5.12-2.816-2.048 0.768-5.376 0.768-7.68-0.256-3.584-1.28-3.328-2.048 1.536-5.888l5.632-4.096-6.656-4.352c-6.4-4.352-6.4-4.352-2.304-13.824 2.304-5.376 4.352-16.896 4.864-25.344 0.512-16.384 4.864-32.768 10.496-39.424 7.68-9.728-1.024-50.688-13.824-63.488-2.048-2.048-5.376-6.4-7.424-9.728-5.376-7.936-50.432-25.088-54.784-20.48zM769.28 828.416c-3.328 6.144-3.84 9.728-2.048 10.752 1.536 1.024 3.584 6.144 4.608 11.52 2.048 11.264 4.352 11.776 13.056 3.072 5.632-5.632 6.4-7.936 4.864-17.408-2.048-12.032-2.816-13.312-10.24-15.616-4.096-1.28-6.4 0.512-10.24 7.68z" fill="#f174ec" /><path d="M694.016 846.336c0 2.816 0.768 3.584 1.536 1.536 0.768-1.792 0.512-4.096-0.256-4.864-0.768-1.024-1.536 0.512-1.28 3.328z" fill="#f174ec" /></svg>